<svg id="visual" viewBox="0 0 540 960" width="540" height="960" xmlns="http://www.w3.org/2000/svg" xmlns:xlink="http://www.w3.org/1999/xlink" version="1.1"><path d="M0 135L60 68L120 49L180 107L240 49L300 97L360 78L420 126L480 116L540 87L540 0L480 0L420 0L360 0L300 0L240 0L180 0L120 0L60 0L0 0Z" fill="#00cc8e"></path><path d="M0 471L60 231L120 356L180 337L240 164L300 347L360 404L420 337L480 356L540 308L540 85L480 114L420 124L360 76L300 95L240 47L180 105L120 47L60 66L0 133Z" fill="#00bd8b"></path><path d="M0 529L60 347L120 404L180 385L240 251L300 452L360 491L420 423L480 414L540 404L540 306L480 354L420 335L360 402L300 345L240 162L180 335L120 354L60 229L0 469Z" fill="#00ae87"></path><path d="M0 673L60 759L120 539L180 769L240 548L300 606L360 644L420 721L480 625L540 673L540 402L480 412L420 421L360 489L300 450L240 249L180 383L120 402L60 345L0 527Z" fill="#00a081"></path><path d="M0 875L60 894L120 759L180 894L240 779L300 788L360 855L420 807L480 788L540 836L540 671L480 623L420 719L360 642L300 604L240 546L180 767L120 537L60 757L0 671Z" fill="#00917b"></path><path d="M0 961L60 961L120 961L180 961L240 961L300 961L360 961L420 961L480 961L540 961L540 834L480 786L420 805L360 853L300 786L240 777L180 892L120 757L60 892L0 873Z" fill="#038373"></path></svg>